<svg xmlns="http://www.w3.org/2000/svg" xmlns:xlink="http://www.w3.org/1999/xlink" width="1080" zoomAndPan="magnify" viewBox="0 0 810 809.999993" height="1080" preserveAspectRatio="xMidYMid meet" version="1.0"><defs><clipPath id="6064624952"><path d="M 109 175 L 700.394531 175 L 700.394531 764 L 109 764 Z M 109 175 " clip-rule="nonzero"/></clipPath><clipPath id="633a0541c1"><path d="M 407.746094 176.867188 L 452.964844 228.742188 C 454.714844 230.75 457.582031 231.363281 460 230.25 L 522.480469 201.429688 C 523.515625 200.953125 524.699219 200.945312 525.738281 201.40625 C 526.777344 201.867188 527.566406 202.753906 527.90625 203.839844 L 548.464844 269.734375 C 549.257812 272.277344 551.640625 273.984375 554.300781 273.921875 L 622.464844 272.273438 C 623.59375 272.246094 624.679688 272.710938 625.4375 273.546875 C 626.199219 274.382812 626.558594 275.507812 626.421875 276.632812 L 618.199219 344.976562 C 617.882812 347.625 619.34375 350.164062 621.796875 351.214844 L 685.109375 378.390625 C 686.152344 378.839844 686.949219 379.714844 687.300781 380.796875 C 687.652344 381.875 687.519531 383.054688 686.9375 384.027344 L 651.570312 443.335938 C 650.207031 445.625 650.519531 448.539062 652.335938 450.488281 L 699.1875 500.703125 C 699.960938 501.535156 700.34375 502.664062 700.234375 503.796875 C 700.121094 504.929688 699.53125 505.957031 698.609375 506.625 L 642.691406 546.980469 C 640.523438 548.546875 639.632812 551.339844 640.496094 553.871094 L 662.6875 618.910156 C 663.054688 619.980469 662.941406 621.160156 662.371094 622.140625 C 661.804688 623.121094 660.839844 623.808594 659.726562 624.027344 L 592.332031 637.199219 C 589.710938 637.710938 587.742188 639.882812 587.484375 642.539062 L 580.910156 710.859375 C 580.800781 711.988281 580.210938 713.015625 579.289062 713.675781 C 578.367188 714.335938 577.207031 714.566406 576.101562 714.308594 L 509.5625 698.675781 C 506.96875 698.066406 504.289062 699.246094 502.984375 701.570312 L 469.273438 761.691406 C 468.714844 762.679688 467.761719 763.382812 466.648438 763.621094 C 465.539062 763.855469 464.378906 763.601562 463.472656 762.921875 L 408.394531 721.753906 C 406.257812 720.15625 403.324219 720.15625 401.191406 721.753906 L 346.113281 762.921875 C 345.203125 763.601562 344.042969 763.855469 342.933594 763.621094 C 341.820312 763.382812 340.867188 762.679688 340.3125 761.691406 L 306.597656 701.570312 C 305.296875 699.246094 302.613281 698.066406 300.019531 698.675781 L 233.480469 714.308594 C 232.375 714.566406 231.214844 714.335938 230.292969 713.675781 C 229.371094 713.015625 228.78125 711.988281 228.671875 710.859375 L 222.097656 642.539062 C 221.839844 639.882812 219.871094 637.710938 217.253906 637.199219 L 149.855469 624.027344 C 148.742188 623.808594 147.777344 623.121094 147.210938 622.140625 C 146.644531 621.160156 146.527344 619.980469 146.894531 618.910156 L 169.085938 553.871094 C 169.949219 551.339844 169.058594 548.546875 166.894531 546.980469 L 110.976562 506.625 C 110.050781 505.957031 109.460938 504.929688 109.351562 503.796875 C 109.238281 502.664062 109.621094 501.535156 110.398438 500.703125 L 157.246094 450.488281 C 159.0625 448.539062 159.375 445.625 158.011719 443.335938 L 122.644531 384.027344 C 122.066406 383.054688 121.933594 381.875 122.28125 380.796875 C 122.632812 379.714844 123.433594 378.839844 124.476562 378.390625 L 187.789062 351.214844 C 190.238281 350.164062 191.703125 347.625 191.382812 344.976562 L 183.160156 276.632812 C 183.027344 275.507812 183.386719 274.382812 184.144531 273.546875 C 184.90625 272.710938 185.992188 272.246094 187.121094 272.273438 L 255.28125 273.921875 C 257.945312 273.984375 260.324219 272.277344 261.117188 269.734375 L 281.679688 203.839844 C 282.015625 202.753906 282.804688 201.867188 283.84375 201.40625 C 284.882812 200.945312 286.070312 200.953125 287.101562 201.429688 L 349.582031 230.25 C 352.003906 231.363281 354.867188 230.75 356.621094 228.742188 L 401.835938 176.867188 C 402.582031 176.011719 403.660156 175.523438 404.792969 175.523438 C 405.925781 175.523438 407.003906 176.011719 407.746094 176.867188 Z M 407.746094 176.867188 " clip-rule="nonzero"/></clipPath><clipPath id="607b1d3999"><path d="M 0.199219 0.441406 L 591.394531 0.441406 L 591.394531 588.921875 L 0.199219 588.921875 Z M 0.199219 0.441406 " clip-rule="nonzero"/></clipPath><clipPath id="95b4166e71"><path d="M 298.746094 1.867188 L 343.964844 53.742188 C 345.714844 55.75 348.582031 56.363281 351 55.25 L 413.480469 26.429688 C 414.515625 25.953125 415.699219 25.945312 416.738281 26.40625 C 417.777344 26.867188 418.566406 27.753906 418.90625 28.839844 L 439.464844 94.734375 C 440.257812 97.277344 442.640625 98.984375 445.300781 98.921875 L 513.464844 97.273438 C 514.59375 97.246094 515.679688 97.710938 516.4375 98.546875 C 517.199219 99.382812 517.558594 100.507812 517.421875 101.632812 L 509.199219 169.976562 C 508.882812 172.625 510.34375 175.164062 512.796875 176.214844 L 576.109375 203.390625 C 577.152344 203.839844 577.949219 204.714844 578.300781 205.796875 C 578.652344 206.875 578.519531 208.054688 577.9375 209.027344 L 542.570312 268.335938 C 541.207031 270.625 541.519531 273.539062 543.335938 275.488281 L 590.1875 325.703125 C 590.960938 326.535156 591.34375 327.664062 591.234375 328.796875 C 591.121094 329.929688 590.53125 330.957031 589.609375 331.625 L 533.691406 371.980469 C 531.523438 373.546875 530.632812 376.339844 531.496094 378.871094 L 553.6875 443.910156 C 554.054688 444.980469 553.941406 446.160156 553.371094 447.140625 C 552.804688 448.121094 551.839844 448.808594 550.726562 449.027344 L 483.332031 462.199219 C 480.710938 462.710938 478.742188 464.882812 478.484375 467.539062 L 471.910156 535.859375 C 471.800781 536.988281 471.210938 538.015625 470.289062 538.675781 C 469.367188 539.335938 468.207031 539.566406 467.101562 539.308594 L 400.5625 523.675781 C 397.96875 523.066406 395.289062 524.246094 393.984375 526.570312 L 360.273438 586.691406 C 359.714844 587.679688 358.761719 588.382812 357.648438 588.621094 C 356.539062 588.855469 355.378906 588.601562 354.472656 587.921875 L 299.394531 546.753906 C 297.257812 545.15625 294.324219 545.15625 292.191406 546.753906 L 237.113281 587.921875 C 236.203125 588.601562 235.042969 588.855469 233.933594 588.621094 C 232.820312 588.382812 231.867188 587.679688 231.3125 586.691406 L 197.597656 526.570312 C 196.296875 524.246094 193.613281 523.066406 191.019531 523.675781 L 124.480469 539.308594 C 123.375 539.566406 122.214844 539.335938 121.292969 538.675781 C 120.371094 538.015625 119.78125 536.988281 119.671875 535.859375 L 113.097656 467.539062 C 112.839844 464.882812 110.871094 462.710938 108.253906 462.199219 L 40.855469 449.027344 C 39.742188 448.808594 38.777344 448.121094 38.210938 447.140625 C 37.644531 446.160156 37.527344 444.980469 37.894531 443.910156 L 60.085938 378.871094 C 60.949219 376.339844 60.058594 373.546875 57.894531 371.980469 L 1.976562 331.625 C 1.050781 330.957031 0.460938 329.929688 0.351562 328.796875 C 0.238281 327.664062 0.621094 326.535156 1.398438 325.703125 L 48.246094 275.488281 C 50.0625 273.539062 50.375 270.625 49.011719 268.335938 L 13.644531 209.027344 C 13.066406 208.054688 12.933594 206.875 13.28125 205.796875 C 13.632812 204.714844 14.433594 203.839844 15.476562 203.390625 L 78.789062 176.214844 C 81.238281 175.164062 82.703125 172.625 82.382812 169.976562 L 74.160156 101.632812 C 74.027344 100.507812 74.386719 99.382812 75.144531 98.546875 C 75.90625 97.710938 76.992188 97.246094 78.121094 97.273438 L 146.28125 98.921875 C 148.945312 98.984375 151.324219 97.277344 152.117188 94.734375 L 172.679688 28.839844 C 173.015625 27.753906 173.804688 26.867188 174.84375 26.40625 C 175.882812 25.945312 177.070312 25.953125 178.101562 26.429688 L 240.582031 55.25 C 243.003906 56.363281 245.867188 55.75 247.621094 53.742188 L 292.835938 1.867188 C 293.582031 1.011719 294.660156 0.523438 295.792969 0.523438 C 296.925781 0.523438 298.003906 1.011719 298.746094 1.867188 Z M 298.746094 1.867188 " clip-rule="nonzero"/></clipPath><clipPath id="b24512e849"><rect x="0" width="592" y="0" height="589"/></clipPath><clipPath id="66fc9baee9"><path d="M 282.378906 351.496094 L 336.769531 351.496094 L 336.769531 498.953125 L 282.378906 498.953125 Z M 282.378906 351.496094 " clip-rule="nonzero"/></clipPath><clipPath id="2c9ac8457a"><path d="M 309.574219 351.496094 C 316.789062 351.496094 323.703125 354.359375 328.804688 359.460938 C 333.90625 364.5625 336.769531 371.480469 336.769531 378.691406 L 336.769531 471.628906 C 336.769531 478.84375 333.90625 485.757812 328.804688 490.859375 C 323.703125 495.960938 316.789062 498.824219 309.574219 498.824219 C 302.359375 498.824219 295.445312 495.960938 290.34375 490.859375 C 285.242188 485.757812 282.378906 478.84375 282.378906 471.628906 L 282.378906 378.691406 C 282.378906 371.480469 285.242188 364.5625 290.34375 359.460938 C 295.445312 354.359375 302.359375 351.496094 309.574219 351.496094 Z M 309.574219 351.496094 " clip-rule="nonzero"/></clipPath><clipPath id="c6fa4f4ccc"><path d="M 0.378906 0.496094 L 54.769531 0.496094 L 54.769531 147.953125 L 0.378906 147.953125 Z M 0.378906 0.496094 " clip-rule="nonzero"/></clipPath><clipPath id="de7f5ef7da"><path d="M 27.574219 0.496094 C 34.789062 0.496094 41.703125 3.359375 46.804688 8.460938 C 51.90625 13.5625 54.769531 20.480469 54.769531 27.691406 L 54.769531 120.628906 C 54.769531 127.84375 51.90625 134.757812 46.804688 139.859375 C 41.703125 144.960938 34.789062 147.824219 27.574219 147.824219 C 20.359375 147.824219 13.445312 144.960938 8.34375 139.859375 C 3.242188 134.757812 0.378906 127.84375 0.378906 120.628906 L 0.378906 27.691406 C 0.378906 20.480469 3.242188 13.5625 8.34375 8.460938 C 13.445312 3.359375 20.359375 0.496094 27.574219 0.496094 Z M 27.574219 0.496094 " clip-rule="nonzero"/></clipPath><clipPath id="c1e08f6353"><rect x="0" width="55" y="0" height="148"/></clipPath><clipPath id="13719fcdca"><path d="M 473.230469 351.496094 L 527.621094 351.496094 L 527.621094 498.953125 L 473.230469 498.953125 Z M 473.230469 351.496094 " clip-rule="nonzero"/></clipPath><clipPath id="572e79f6e5"><path d="M 500.425781 351.496094 C 507.640625 351.496094 514.554688 354.359375 519.65625 359.460938 C 524.757812 364.5625 527.621094 371.480469 527.621094 378.691406 L 527.621094 471.628906 C 527.621094 478.84375 524.757812 485.757812 519.65625 490.859375 C 514.554688 495.960938 507.640625 498.824219 500.425781 498.824219 C 493.210938 498.824219 486.296875 495.960938 481.195312 490.859375 C 476.09375 485.757812 473.230469 478.84375 473.230469 471.628906 L 473.230469 378.691406 C 473.230469 371.480469 476.09375 364.5625 481.195312 359.460938 C 486.296875 354.359375 493.210938 351.496094 500.425781 351.496094 Z M 500.425781 351.496094 " clip-rule="nonzero"/></clipPath><clipPath id="1a50d0533c"><path d="M 0.230469 0.496094 L 54.621094 0.496094 L 54.621094 147.953125 L 0.230469 147.953125 Z M 0.230469 0.496094 " clip-rule="nonzero"/></clipPath><clipPath id="28090a51aa"><path d="M 27.425781 0.496094 C 34.640625 0.496094 41.554688 3.359375 46.65625 8.460938 C 51.757812 13.5625 54.621094 20.480469 54.621094 27.691406 L 54.621094 120.628906 C 54.621094 127.84375 51.757812 134.757812 46.65625 139.859375 C 41.554688 144.960938 34.640625 147.824219 27.425781 147.824219 C 20.210938 147.824219 13.296875 144.960938 8.195312 139.859375 C 3.09375 134.757812 0.230469 127.84375 0.230469 120.628906 L 0.230469 27.691406 C 0.230469 20.480469 3.09375 13.5625 8.195312 8.460938 C 13.296875 3.359375 20.210938 0.496094 27.425781 0.496094 Z M 27.425781 0.496094 " clip-rule="nonzero"/></clipPath><clipPath id="de6369a635"><rect x="0" width="55" y="0" height="148"/></clipPath><clipPath id="72b8b97048"><path d="M 28 17.671875 L 444 17.671875 L 444 257.449219 L 28 257.449219 Z M 28 17.671875 " clip-rule="nonzero"/></clipPath><clipPath id="9146f9add7"><path d="M 443.632812 257.449219 C 443.632812 126.84375 349.09375 17.671875 236 17.671875 C 122.90625 17.671875 28.367188 126.84375 28.367188 257.449219 Z M 443.632812 257.449219 " clip-rule="nonzero"/></clipPath><clipPath id="e8c00c5e23"><path d="M 0.28125 0.671875 L 415.71875 0.671875 L 415.71875 240.449219 L 0.28125 240.449219 Z M 0.28125 0.671875 " clip-rule="nonzero"/></clipPath><clipPath id="5cc5fe304a"><path d="M 415.632812 240.449219 C 415.632812 109.84375 321.09375 0.671875 208 0.671875 C 94.90625 0.671875 0.367188 109.84375 0.367188 240.449219 Z M 415.632812 240.449219 " clip-rule="nonzero"/></clipPath><clipPath id="db4bbb256f"><rect x="0" width="416" y="0" height="241"/></clipPath><clipPath id="d263d8f12d"><path d="M 0.550781 182.738281 L 471.15625 182.738281 L 471.15625 267.578125 L 0.550781 267.578125 Z M 0.550781 182.738281 " clip-rule="nonzero"/></clipPath><clipPath id="6ace47f490"><path d="M 314.292969 186.605469 C 290.183594 184.269531 262.769531 182.738281 235.863281 182.738281 C 208.957031 182.738281 183.066406 184.050781 159.210938 186.386719 C 158.703125 186.460938 158.195312 186.460938 157.6875 186.535156 C 68.085938 195.882812 2.09375 220.566406 0.824219 247.636719 L 0.824219 257.605469 C 0.824219 260.25 1.875 262.789062 3.746094 264.65625 C 5.613281 266.527344 8.152344 267.578125 10.796875 267.578125 L 461.191406 267.578125 C 466.695312 267.578125 471.15625 263.117188 471.15625 257.613281 L 471.15625 247.652344 C 469.886719 220.421875 404.910156 195.738281 314.292969 186.605469 Z M 314.292969 186.605469 " clip-rule="nonzero"/></clipPath><clipPath id="5119d6cb9b"><path d="M 0.679688 0.738281 L 471.15625 0.738281 L 471.15625 85.578125 L 0.679688 85.578125 Z M 0.679688 0.738281 " clip-rule="nonzero"/></clipPath><clipPath id="f2bf5d3602"><path d="M 314.292969 4.605469 C 290.183594 2.269531 262.769531 0.738281 235.863281 0.738281 C 208.957031 0.738281 183.066406 2.050781 159.210938 4.386719 C 158.703125 4.460938 158.195312 4.460938 157.6875 4.535156 C 68.085938 13.882812 2.09375 38.566406 0.824219 65.636719 L 0.824219 75.605469 C 0.824219 78.25 1.875 80.789062 3.746094 82.65625 C 5.613281 84.527344 8.152344 85.578125 10.796875 85.578125 L 461.191406 85.578125 C 466.695312 85.578125 471.15625 81.117188 471.15625 75.613281 L 471.15625 65.652344 C 469.886719 38.421875 404.910156 13.738281 314.292969 4.605469 Z M 314.292969 4.605469 " clip-rule="nonzero"/></clipPath><clipPath id="2a4f5bbca2"><rect x="0" width="472" y="0" height="86"/></clipPath><clipPath id="ac00e62a60"><path d="M 203.570312 0.191406 L 268.429688 0.191406 L 268.429688 257.59375 L 203.570312 257.59375 Z M 203.570312 0.191406 " clip-rule="nonzero"/></clipPath><clipPath id="42ac13141e"><path d="M 236 0.191406 C 244.601562 0.191406 252.847656 3.609375 258.929688 9.691406 C 265.011719 15.773438 268.429688 24.019531 268.429688 32.621094 L 268.429688 225.019531 C 268.429688 233.621094 265.011719 241.867188 258.929688 247.949219 C 252.847656 254.03125 244.601562 257.449219 236 257.449219 C 227.398438 257.449219 219.152344 254.03125 213.070312 247.949219 C 206.988281 241.867188 203.570312 233.621094 203.570312 225.019531 L 203.570312 32.621094 C 203.570312 24.019531 206.988281 15.773438 213.070312 9.691406 C 219.152344 3.609375 227.398438 0.191406 236 0.191406 Z M 236 0.191406 " clip-rule="nonzero"/></clipPath><clipPath id="4ae2038834"><path d="M 0.570312 0.191406 L 65.429688 0.191406 L 65.429688 257.59375 L 0.570312 257.59375 Z M 0.570312 0.191406 " clip-rule="nonzero"/></clipPath><clipPath id="2e64096957"><path d="M 33 0.191406 C 41.601562 0.191406 49.847656 3.609375 55.929688 9.691406 C 62.011719 15.773438 65.429688 24.019531 65.429688 32.621094 L 65.429688 225.019531 C 65.429688 233.621094 62.011719 241.867188 55.929688 247.949219 C 49.847656 254.03125 41.601562 257.449219 33 257.449219 C 24.398438 257.449219 16.152344 254.03125 10.070312 247.949219 C 3.988281 241.867188 0.570312 233.621094 0.570312 225.019531 L 0.570312 32.621094 C 0.570312 24.019531 3.988281 15.773438 10.070312 9.691406 C 16.152344 3.609375 24.398438 0.191406 33 0.191406 Z M 33 0.191406 " clip-rule="nonzero"/></clipPath><clipPath id="15d5a5cbf6"><rect x="0" width="66" y="0" height="258"/></clipPath><clipPath id="06d73eec0f"><rect x="0" width="472" y="0" height="268"/></clipPath><clipPath id="c74162eb55"><path d="M 344.285156 552.980469 L 465.632812 552.980469 L 465.632812 615.488281 L 344.285156 615.488281 Z M 344.285156 552.980469 " clip-rule="nonzero"/></clipPath><clipPath id="01f51bb6cd"><path d="M 344.34375 552.980469 C 344.34375 587.027344 371.957031 615.488281 404.988281 615.488281 C 438.019531 615.488281 465.632812 587.027344 465.632812 552.980469 Z M 344.34375 552.980469 " clip-rule="nonzero"/></clipPath><clipPath id="c0fb6ca010"><path d="M 0.285156 0.980469 L 121.632812 0.980469 L 121.632812 63.488281 L 0.285156 63.488281 Z M 0.285156 0.980469 " clip-rule="nonzero"/></clipPath><clipPath id="5091aa5bf9"><path d="M 0.34375 0.980469 C 0.34375 35.027344 27.957031 63.488281 60.988281 63.488281 C 94.019531 63.488281 121.632812 35.027344 121.632812 0.980469 Z M 0.34375 0.980469 " clip-rule="nonzero"/></clipPath><clipPath id="5d05490f8b"><rect x="0" width="122" y="0" height="64"/></clipPath></defs><g clip-path="url(#6064624952)"><g clip-path="url(#633a0541c1)"><g transform="matrix(1, 0, 0, 1, 109, 175)"><g clip-path="url(#b24512e849)"><g clip-path="url(#607b1d3999)"><g clip-path="url(#95b4166e71)"><rect x="-287.2" width="1166.4" fill="#e00034" height="1166.39999" y="-353.199998" fill-opacity="1"/></g></g></g></g></g></g><g clip-path="url(#66fc9baee9)"><g clip-path="url(#2c9ac8457a)"><g transform="matrix(1, 0, 0, 1, 282, 351)"><g clip-path="url(#c1e08f6353)"><g clip-path="url(#c6fa4f4ccc)"><g clip-path="url(#de7f5ef7da)"><path fill="#0a0c0f" d="M 0.378906 0.496094 L 54.769531 0.496094 L 54.769531 147.738281 L 0.378906 147.738281 Z M 0.378906 0.496094 " fill-opacity="1" fill-rule="nonzero"/></g></g></g></g></g></g><g clip-path="url(#13719fcdca)"><g clip-path="url(#572e79f6e5)"><g transform="matrix(1, 0, 0, 1, 473, 351)"><g clip-path="url(#de6369a635)"><g clip-path="url(#1a50d0533c)"><g clip-path="url(#28090a51aa)"><path fill="#0a0c0f" d="M 0.230469 0.496094 L 54.621094 0.496094 L 54.621094 147.738281 L 0.230469 147.738281 Z M 0.230469 0.496094 " fill-opacity="1" fill-rule="nonzero"/></g></g></g></g></g></g><g transform="matrix(1, 0, 0, 1, 169, 21)"><g clip-path="url(#06d73eec0f)"><g clip-path="url(#72b8b97048)"><g clip-path="url(#9146f9add7)"><g transform="matrix(1, 0, 0, 1, 28, 17)"><g clip-path="url(#db4bbb256f)"><g clip-path="url(#e8c00c5e23)"><g clip-path="url(#5cc5fe304a)"><path fill="#f9c01b" d="M 0.367188 0.671875 L 415.296875 0.671875 L 415.296875 240.449219 L 0.367188 240.449219 Z M 0.367188 0.671875 " fill-opacity="1" fill-rule="nonzero"/></g></g></g></g></g></g><g clip-path="url(#d263d8f12d)"><g clip-path="url(#6ace47f490)"><g transform="matrix(1, 0, 0, 1, 0, 182)"><g clip-path="url(#2a4f5bbca2)"><g clip-path="url(#5119d6cb9b)"><g clip-path="url(#f2bf5d3602)"><path fill="#e1aa0b" d="M 471.15625 85.578125 L 0.882812 85.578125 L 0.882812 0.738281 L 471.15625 0.738281 Z M 471.15625 85.578125 " fill-opacity="1" fill-rule="nonzero"/></g></g></g></g></g></g><g clip-path="url(#ac00e62a60)"><g clip-path="url(#42ac13141e)"><g transform="matrix(1, 0, 0, 1, 203, 0.00000000000003908)"><g clip-path="url(#15d5a5cbf6)"><g clip-path="url(#4ae2038834)"><g clip-path="url(#2e64096957)"><path fill="#e1aa0b" d="M 0.570312 0.191406 L 65.429688 0.191406 L 65.429688 257.339844 L 0.570312 257.339844 Z M 0.570312 0.191406 " fill-opacity="1" fill-rule="nonzero"/></g></g></g></g></g></g></g></g><g clip-path="url(#c74162eb55)"><g clip-path="url(#01f51bb6cd)"><g transform="matrix(1, 0, 0, 1, 344, 552)"><g clip-path="url(#5d05490f8b)"><g clip-path="url(#c0fb6ca010)"><g clip-path="url(#5091aa5bf9)"><path fill="#f3f3f4" d="M 121.632812 63.488281 L 0.285156 63.488281 L 0.285156 0.980469 L 121.632812 0.980469 Z M 121.632812 63.488281 " fill-opacity="1" fill-rule="nonzero"/></g></g></g></g></g></g></svg>