<svg xmlns="http://www.w3.org/2000/svg" xmlns:xlink="http://www.w3.org/1999/xlink" width="1080" zoomAndPan="magnify" viewBox="0 0 810 809.999993" height="1080" preserveAspectRatio="xMidYMid meet" version="1.0"><defs><clipPath id="e9134fdf22"><path d="M 0.90625 0.605469 L 767.09375 0.605469 L 767.09375 511.394531 L 0.90625 511.394531 Z M 0.90625 0.605469 " clip-rule="nonzero"/></clipPath><clipPath id="c27dfb5afe"><path d="M 347.519531 0.605469 C 486.289062 0.605469 608.054688 110.585938 602.710938 247.195312 L 630.273438 247.195312 C 705.835938 247.195312 767.09375 306.339844 767.09375 379.296875 C 767.089844 452.25 705.835938 511.394531 630.273438 511.394531 L 137.726562 511.394531 C 62.167969 511.394531 0.910156 452.25 0.90625 379.296875 C 0.90625 321.566406 39.269531 272.503906 92.71875 254.53125 C 82.695312 115.386719 205.84375 0.605469 347.519531 0.605469 Z M 347.519531 0.605469 " clip-rule="nonzero"/></clipPath><clipPath id="f048c1c6b0"><path d="M 0.90625 0.605469 L 767.09375 0.605469 L 767.09375 511.394531 L 0.90625 511.394531 Z M 0.90625 0.605469 " clip-rule="nonzero"/></clipPath><clipPath id="3f178cd60d"><path d="M 347.519531 0.605469 C 486.289062 0.605469 608.054688 110.585938 602.710938 247.195312 L 630.273438 247.195312 C 705.835938 247.195312 767.09375 306.339844 767.09375 379.296875 C 767.089844 452.25 705.835938 511.394531 630.273438 511.394531 L 137.726562 511.394531 C 62.167969 511.394531 0.910156 452.25 0.90625 379.296875 C 0.90625 321.566406 39.269531 272.503906 92.71875 254.53125 C 82.695312 115.386719 205.84375 0.605469 347.519531 0.605469 Z M 347.519531 0.605469 " clip-rule="nonzero"/></clipPath><clipPath id="f2d0862c84"><rect x="0" width="768" y="0" height="512"/></clipPath><clipPath id="15eb25c640"><path d="M 204.566406 129.882812 L 262.398438 129.882812 L 262.398438 270.851562 L 204.566406 270.851562 Z M 204.566406 129.882812 " clip-rule="nonzero"/></clipPath><clipPath id="e9be51c452"><path d="M 233.480469 129.882812 C 241.152344 129.882812 248.507812 132.929688 253.929688 138.351562 C 259.351562 143.773438 262.398438 151.128906 262.398438 158.796875 L 262.398438 241.730469 C 262.398438 249.398438 259.351562 256.753906 253.929688 262.175781 C 248.507812 267.601562 241.152344 270.648438 233.480469 270.648438 C 225.8125 270.648438 218.457031 267.601562 213.035156 262.175781 C 207.613281 256.753906 204.566406 249.398438 204.566406 241.730469 L 204.566406 158.796875 C 204.566406 151.128906 207.613281 143.773438 213.035156 138.351562 C 218.457031 132.929688 225.8125 129.882812 233.480469 129.882812 Z M 233.480469 129.882812 " clip-rule="nonzero"/></clipPath><clipPath id="a2c3754368"><path d="M 0.566406 0.882812 L 58.398438 0.882812 L 58.398438 141.761719 L 0.566406 141.761719 Z M 0.566406 0.882812 " clip-rule="nonzero"/></clipPath><clipPath id="1eec368740"><path d="M 29.480469 0.882812 C 37.152344 0.882812 44.507812 3.929688 49.929688 9.351562 C 55.351562 14.773438 58.398438 22.128906 58.398438 29.796875 L 58.398438 112.730469 C 58.398438 120.398438 55.351562 127.753906 49.929688 133.175781 C 44.507812 138.601562 37.152344 141.648438 29.480469 141.648438 C 21.8125 141.648438 14.457031 138.601562 9.035156 133.175781 C 3.613281 127.753906 0.566406 120.398438 0.566406 112.730469 L 0.566406 29.796875 C 0.566406 22.128906 3.613281 14.773438 9.035156 9.351562 C 14.457031 3.929688 21.8125 0.882812 29.480469 0.882812 Z M 29.480469 0.882812 " clip-rule="nonzero"/></clipPath><clipPath id="26c190954f"><rect x="0" width="59" y="0" height="142"/></clipPath><clipPath id="2972efb2e8"><path d="M 407.488281 129.882812 L 465.320312 129.882812 L 465.320312 270.851562 L 407.488281 270.851562 Z M 407.488281 129.882812 " clip-rule="nonzero"/></clipPath><clipPath id="5873465538"><path d="M 436.402344 129.882812 C 444.074219 129.882812 451.425781 132.929688 456.851562 138.351562 C 462.273438 143.773438 465.320312 151.128906 465.320312 158.796875 L 465.320312 241.730469 C 465.320312 249.398438 462.273438 256.753906 456.851562 262.175781 C 451.425781 267.601562 444.074219 270.648438 436.402344 270.648438 C 428.734375 270.648438 421.378906 267.601562 415.957031 262.175781 C 410.535156 256.753906 407.488281 249.398438 407.488281 241.730469 L 407.488281 158.796875 C 407.488281 151.128906 410.535156 143.773438 415.957031 138.351562 C 421.378906 132.929688 428.734375 129.882812 436.402344 129.882812 Z M 436.402344 129.882812 " clip-rule="nonzero"/></clipPath><clipPath id="425643b1a1"><path d="M 0.488281 0.882812 L 58.320312 0.882812 L 58.320312 141.761719 L 0.488281 141.761719 Z M 0.488281 0.882812 " clip-rule="nonzero"/></clipPath><clipPath id="faac85e02b"><path d="M 29.402344 0.882812 C 37.074219 0.882812 44.425781 3.929688 49.851562 9.351562 C 55.273438 14.773438 58.320312 22.128906 58.320312 29.796875 L 58.320312 112.730469 C 58.320312 120.398438 55.273438 127.753906 49.851562 133.175781 C 44.425781 138.601562 37.074219 141.648438 29.402344 141.648438 C 21.734375 141.648438 14.378906 138.601562 8.957031 133.175781 C 3.535156 127.753906 0.488281 120.398438 0.488281 112.730469 L 0.488281 29.796875 C 0.488281 22.128906 3.535156 14.773438 8.957031 9.351562 C 14.378906 3.929688 21.734375 0.882812 29.402344 0.882812 Z M 29.402344 0.882812 " clip-rule="nonzero"/></clipPath><clipPath id="6fe1a7d400"><rect x="0" width="59" y="0" height="142"/></clipPath><clipPath id="e15479e812"><path d="M 270.355469 322.363281 L 399.359375 322.363281 L 399.359375 382.082031 L 270.355469 382.082031 Z M 270.355469 322.363281 " clip-rule="nonzero"/></clipPath><clipPath id="75e35d2574"><path d="M 270.402344 322.363281 C 270.402344 354.890625 299.757812 382.082031 334.878906 382.082031 C 370 382.082031 399.359375 354.890625 399.359375 322.363281 Z M 270.402344 322.363281 " clip-rule="nonzero"/></clipPath><clipPath id="c5cc3c73e2"><path d="M 0.359375 0.363281 L 129.359375 0.363281 L 129.359375 60.082031 L 0.359375 60.082031 Z M 0.359375 0.363281 " clip-rule="nonzero"/></clipPath><clipPath id="9d43f6de48"><path d="M 0.402344 0.363281 C 0.402344 32.890625 29.757812 60.082031 64.878906 60.082031 C 100 60.082031 129.359375 32.890625 129.359375 0.363281 Z M 0.402344 0.363281 " clip-rule="nonzero"/></clipPath><clipPath id="d0de91cc87"><rect x="0" width="130" y="0" height="61"/></clipPath><clipPath id="e25c21e48e"><rect x="0" width="768" y="0" height="512"/></clipPath></defs><g transform="matrix(1, 0, 0, 1, 21, 149)"><g clip-path="url(#e25c21e48e)"><g clip-path="url(#e9134fdf22)"><g clip-path="url(#c27dfb5afe)"><g transform="matrix(1, 0, 0, 1, 0, 0.000000000000028422)"><g clip-path="url(#f2d0862c84)"><g clip-path="url(#f048c1c6b0)"><g clip-path="url(#3f178cd60d)"><path fill="#004aad" d="M 0.90625 0.605469 L 767.09375 0.605469 L 767.09375 511.394531 L 0.90625 511.394531 Z M 0.90625 0.605469 " fill-opacity="1" fill-rule="nonzero"/></g></g></g></g></g></g><g clip-path="url(#15eb25c640)"><g clip-path="url(#e9be51c452)"><g transform="matrix(1, 0, 0, 1, 204, 129)"><g clip-path="url(#26c190954f)"><g clip-path="url(#a2c3754368)"><g clip-path="url(#1eec368740)"><path fill="#0a0c0f" d="M 0.566406 0.882812 L 58.398438 0.882812 L 58.398438 141.625 L 0.566406 141.625 Z M 0.566406 0.882812 " fill-opacity="1" fill-rule="nonzero"/></g></g></g></g></g></g><g clip-path="url(#2972efb2e8)"><g clip-path="url(#5873465538)"><g transform="matrix(1, 0, 0, 1, 407, 129)"><g clip-path="url(#6fe1a7d400)"><g clip-path="url(#425643b1a1)"><g clip-path="url(#faac85e02b)"><path fill="#0a0c0f" d="M 0.488281 0.882812 L 58.320312 0.882812 L 58.320312 141.625 L 0.488281 141.625 Z M 0.488281 0.882812 " fill-opacity="1" fill-rule="nonzero"/></g></g></g></g></g></g><g clip-path="url(#e15479e812)"><g clip-path="url(#75e35d2574)"><g transform="matrix(1, 0, 0, 1, 270, 322)"><g clip-path="url(#d0de91cc87)"><g clip-path="url(#c5cc3c73e2)"><g clip-path="url(#9d43f6de48)"><path fill="#f3f3f4" d="M 129.359375 60.082031 L 0.355469 60.082031 L 0.355469 0.363281 L 129.359375 0.363281 Z M 129.359375 60.082031 " fill-opacity="1" fill-rule="nonzero"/></g></g></g></g></g></g></g></g></svg>